# xmcd
#
# Track frame offsets:
#	150
#	16492
#	30305
#	51320
#	69875
#	80217
#	94275
#	113377
#	130202
#	152135
#	164587
#	176425
#	188690
#	206732
#	219592
#
# Disc length: 3085 seconds
#
# Revision: 0
# Processed by: cddbd v1.5.1PL2 Copyright (c) Steve Scherf et al.
# Submitted via: dBpowerAMP V4.0
#
DISCID=ca0c0b0f
DTITLE=Ritmo Brasileiro - Ritmo Brasileiro
DYEAR=1997
DGENRE=Latin
TTITLE0=Swing Da Cor
TTITLE1=Ile de Luz
TTITLE2=Soy Loco Por Ti America
TTITLE3=Sei de Cor
TTITLE4=Misture E Manda
TTITLE5=Diamante
TTITLE6=Solidao
TTITLE7=Banda dos Negros
TTITLE8=Vida
TTITLE9=Canto da Cor
TTITLE10=Tempos Felizes
TTITLE11=O Menino
TTITLE12=A deusa Do Amor
TTITLE13=Maravilhe
TTITLE14=Espinha Da Bacalhau
EXTD=CM
EXTT0=
EXTT1=
EXTT2=
EXTT3=
EXTT4=
EXTT5=
EXTT6=
EXTT7=
EXTT8=
EXTT9=
EXTT10=
EXTT11=
EXTT12=
EXTT13=
EXTT14=
PLAYORDER=
